<svg width="32" height="33" viewBox="0 0 32 33" fill="none" xmlns="http://www.w3.org/2000/svg">
<path fill-rule="evenodd" clip-rule="evenodd" d="M28.7683 8.69409C29.9604 10.7674 30.6628 13.1594 30.7153 15.7083L30.7157 15.7275L30.7188 22.4201C30.7188 23.5434 30.1412 24.5876 29.1889 25.1844L18.4261 31.928L18.3276 31.9751C16.8619 32.675 15.1584 32.6749 13.6927 31.9752L13.5941 31.9282L2.83023 25.1847C1.88134 24.5903 1.30369 23.5504 1.29981 22.4315L1.29807 22.2435C1.29696 22.1179 1.29543 21.9363 1.29374 21.7113C1.29036 21.2615 1.28634 20.6379 1.28379 19.9428C1.27872 18.5588 1.27937 16.8698 1.30335 15.7082C1.34871 13.5102 1.87689 11.4277 2.78675 9.56541C2.27861 8.60728 1.98768 7.62182 1.99412 6.64998C2.00225 5.4217 2.49246 4.31059 3.40892 3.52945C4.91033 2.24971 7.05691 2.18714 9.0686 2.84268C10.8651 1.81633 12.6973 1.32977 14.534 1.20345C14.5664 1.16441 14.601 1.12565 14.6381 1.0873C15.3043 0.398656 16.1195 0.483214 16.3846 0.531284C16.392 0.532281 16.401 0.533484 16.4119 0.5349L16.5125 0.547783C16.5525 0.552884 16.5987 0.558784 16.6493 0.565378C16.8524 0.591815 17.1315 0.629864 17.4488 0.682159C18.0599 0.782846 18.9059 0.950684 19.6627 1.22959C20.9263 1.69475 21.9811 2.2723 22.7199 2.70732C22.7683 2.69418 22.8182 2.6809 22.8695 2.6676C23.4509 2.51706 24.3242 2.33387 25.2286 2.35892C26.1032 2.38314 27.3766 2.61717 28.2792 3.69282C29.1969 4.78648 29.3091 6.24111 29.0316 7.71828M28.7683 8.69409C28.8822 8.36131 28.9734 8.02887 29.0313 7.71977Z" fill="url(#paint0_linear_6670_186858)"/>
<path fill-rule="evenodd" clip-rule="evenodd" d="M3.19041 22.4213C3.19041 22.887 3.43026 23.3203 3.82475 23.5674L14.4963 30.253C15.4417 30.7043 16.5404 30.7043 17.4854 30.253L28.1556 23.5674C28.5505 23.3199 28.7899 22.887 28.7899 22.4213L28.7867 15.7488C28.7344 13.2069 27.9405 10.8477 26.6137 8.877C26.8612 8.36529 27.0546 7.79903 27.1353 7.36802C28.0483 2.51331 22.5141 4.8239 22.4303 4.77386C21.731 4.35502 20.5376 3.59489 18.9831 3.02277C17.8136 2.59176 16.1676 2.44388 16.0269 2.41232C15.8862 2.38077 16.1392 2.69771 16.3037 3.10167C13.9512 2.97363 11.6762 3.39968 9.46664 4.82435C9.33634 4.90821 9.24798 4.96682 9.24798 4.96682C5.33103 3.19544 2.34958 5.38656 4.73907 9.16014C4.82473 9.29539 4.89821 9.41396 4.96133 9.51766C3.87885 11.3508 3.24045 13.477 3.19356 15.7488C3.14668 18.0206 3.19041 22.4213 3.19041 22.4213Z" fill="url(#paint1_linear_6670_186858)"/>
<path fill-rule="evenodd" clip-rule="evenodd" d="M26.3832 10.4843C27.2633 12.134 27.7624 14.0172 27.7624 16.0171C27.7624 18.6924 26.8693 21.159 25.3657 23.136C26.2385 21.2911 26.3706 18.976 25.5997 16.2268C25.0086 14.1199 24.4649 12.6299 24.5262 15.8255C24.5884 19.0486 23.3148 19.6315 23.3436 18.7073C23.4131 16.495 21.1205 22.5913 21.5231 19.169C21.6669 17.9458 21.5128 18.2903 21.0092 19.2975C20.5056 20.3047 19.0615 22.4633 16.6639 21.8659C14.2668 21.269 12.6667 18.8142 12.4692 18.3565C12.2718 17.8989 12.2758 18.4463 12.3498 19.1861C12.4237 19.9255 12.3691 20.2542 12.3691 20.2542C10.2263 18.417 12.1798 21.6982 12.6392 22.7428C12.6392 22.7428 8.8557 20.7618 8.41432 15.6524C8.41432 15.6524 7.656 18.0955 8.33948 21.4778C8.82099 23.8591 9.69923 25.5137 10.8187 26.594C6.91075 24.6797 4.21875 20.6631 4.21875 16.0171C4.21875 14.8003 4.4036 13.6272 4.74624 12.5231C4.64119 13.4649 4.62271 14.6605 4.84858 16.0451C4.92207 16.495 5.22729 17.9143 5.58436 18.7691C6.01492 19.7993 6.47839 20.1225 6.14431 18.4138C5.92746 17.3056 5.98922 15.9883 6.0848 14.0798C6.16776 12.4243 6.40625 10.7648 6.95043 9.60382C4.94642 8.4208 4.18764 5.34964 6.68984 5.58408C8.17943 5.72339 9.54685 6.52906 9.63431 6.54619C9.63882 6.54709 12.9967 3.59585 17.8474 4.44299L17.4565 3.60352C18.2626 3.7532 18.9934 4.03362 19.7856 4.40692C20.667 4.8226 21.3978 5.42674 21.9834 5.73421C22.85 6.18912 22.9135 6.20715 23.7562 5.68056C25.1953 4.78113 26.0415 5.68282 26.1136 6.9781C26.1858 8.27338 24.7106 10.2165 24.7106 10.2165C26.0915 12.2674 26.0879 13.1073 26.275 13.2751C26.3765 13.3657 26.4883 12.7165 26.495 11.8378C26.4982 11.4212 26.45 10.9352 26.3837 10.4848L26.3832 10.4843Z" fill="white"/>
<path fill-rule="evenodd" clip-rule="evenodd" d="M24.2374 19.6299C23.7266 21.2737 22.2334 21.8485 21.3145 21.3909C21.2988 21.3828 21.3276 22.3958 20.9043 23.6203C20.5026 24.7808 19.6532 26.1505 19.4102 26.3448C21.2586 25.5662 22.9186 23.9021 23.7234 22.0744C24.2892 20.7895 24.2378 19.6299 24.2378 19.6299H24.2374Z" fill="white"/>
<path fill-rule="evenodd" clip-rule="evenodd" d="M8.79174 7.48551C7.70746 5.8823 6.65518 6.52295 7.03074 7.48551C7.40629 8.44807 7.61774 9.12884 7.75885 8.75329C7.89952 8.37773 8.79174 7.48551 8.79174 7.48551Z" fill="#3256DF"/>
<path fill-rule="evenodd" clip-rule="evenodd" d="M23.709 7.46014C23.709 7.46014 24.0611 8.46959 24.2022 8.84559C24.3433 9.22115 24.5543 8.54037 24.9303 7.57782C25.3059 6.61526 24.7937 5.85739 23.7094 7.4606L23.709 7.46014Z" fill="#3256DF"/>
<path fill-rule="evenodd" clip-rule="evenodd" d="M19.6543 10.2817C20.7517 11.3429 21.4351 10.6234 21.7413 10.2095C22.0469 9.79609 21.1114 9.63379 20.5542 9.63379C19.9969 9.63379 19.7445 10.1915 19.6547 10.2817H19.6543Z" fill="#3256DF"/>
<path fill-rule="evenodd" clip-rule="evenodd" d="M13.225 10.2338C13.1353 10.1436 12.8833 9.58594 12.3256 9.58594C11.7679 9.58594 10.8324 9.74824 11.138 10.1617C11.4437 10.5755 12.1277 11.2951 13.225 10.2338Z" fill="#3256DF"/>
<path fill-rule="evenodd" clip-rule="evenodd" d="M15.6258 13.4907C15.427 13.5055 15.211 13.5705 15.0879 13.7594C14.8183 14.1732 14.4933 15.1818 14.8891 15.7214C15.285 16.2611 16.472 16.8729 16.5081 17.1605C16.5442 17.4486 16.6519 17.7904 16.2024 17.7904C15.7529 17.7904 14.9793 17.5744 14.5474 17.3409C14.1155 17.1069 14.3314 17.9522 15.0149 18.3481C15.6984 18.7439 17.4977 19.1578 18.6311 18.4382C19.7646 17.7187 20.1965 17.0893 19.4228 17.3228C18.6492 17.5568 17.8575 18.0604 17.6596 17.6466C17.4616 17.2327 17.5879 16.7291 18.2353 16.441C18.8827 16.1534 19.4584 15.4875 19.2785 14.7138C19.0987 13.9401 19.0446 13.4366 18.2709 13.4366C17.4973 13.4366 16.3877 13.4334 15.6253 13.4907H15.6258Z" fill="#3256DF"/>
<path fill-rule="evenodd" clip-rule="evenodd" d="M17.9582 16.0872C18.4185 15.7252 18.4302 15.3447 17.8978 15.3365C17.5286 15.3311 15.8649 15.2572 15.8672 15.5471C15.8726 16.2689 17.2576 16.6381 17.9582 16.0868V16.0872Z" fill="white"/>
<defs>
<linearGradient id="paint0_linear_6670_186858" x1="16.0007" y1="43.3902" x2="16.0007" y2="17.7907" gradientUnits="userSpaceOnUse">
<stop stop-color="#24A8F6"/>
<stop offset="1" stop-color="#4F67C2"/>
</linearGradient>
<linearGradient id="paint1_linear_6670_186858" x1="15.9903" y1="2.41016" x2="15.9903" y2="30.5914" gradientUnits="userSpaceOnUse">
<stop stop-color="#3256DF"/>
<stop offset="1" stop-color="#2743AD"/>
</linearGradient>
</defs>
</svg>
