<svg width="20" height="20" viewBox="0 0 20 20" fill="none" xmlns="http://www.w3.org/2000/svg">
<rect x="20" y="20" width="20" height="20" rx="10" transform="rotate(-180 20 20)" fill="#3897F0"/>
<path fill-rule="evenodd" clip-rule="evenodd" d="M11.8854 18L9.99946 16.5433L8.11352 18L3.88453 15.603L4.22662 13.2714L2 12.3969L2 7.60297L4.22742 6.72818L3.88539 4.39696L8.11439 2L9.99946 3.45607L11.8845 2L16.1135 4.39696L15.7716 6.72778L18 7.60297V12.3969L15.7724 13.2718L16.1144 15.603L11.8854 18ZM14.8066 14.9796L14.4457 12.5198L16.7961 11.5968V8.4031L14.4449 7.4797L14.8057 5.02043L11.9884 3.42359L9.99946 4.95992L8.01049 3.42359L5.19318 5.02043L5.55405 7.48011L3.20388 8.4031L3.20388 11.5968L5.55325 12.5194L5.19231 14.9796L8.00963 16.5764L9.99946 15.0394L11.9893 16.5764L14.8066 14.9796Z" fill="white"/>
<path fill-rule="evenodd" clip-rule="evenodd" d="M9.65062 11.9859C10.7474 11.9859 11.6365 11.0968 11.6365 10C11.6365 8.9032 10.7474 8.01407 9.65062 8.01407C8.55382 8.01407 7.66469 8.9032 7.66469 10C7.66469 11.0968 8.55382 11.9859 9.65062 11.9859ZM12.6506 10C12.6506 11.6569 11.3075 13 9.65062 13C7.99376 13 6.65062 11.6569 6.65062 10C6.65062 8.34315 7.99376 7 9.65062 7C11.3075 7 12.6506 8.34315 12.6506 10Z" fill="white"/>
</svg>
