<svg width="1163" height="1163" viewBox="0 0 1163 1163" fill="none" xmlns="http://www.w3.org/2000/svg">
<rect width="1163" height="1163" rx="14" fill="url(#paint0_linear_11603_250)"/>
<path d="M866.798 204C850.935 204.004 835.335 208.056 821.476 215.771C807.616 223.487 795.955 234.611 787.596 248.091C779.237 261.572 774.456 276.962 773.707 292.805C772.958 308.649 776.265 324.421 783.314 338.63L580.212 541.71C560.404 531.87 537.742 529.392 516.274 534.717C494.806 540.042 475.93 552.823 463.017 570.779C450.104 588.735 443.995 610.695 445.78 632.739C447.565 654.783 457.129 675.475 472.763 691.119C488.398 706.763 509.084 716.341 531.129 718.143C553.174 719.945 575.142 713.852 593.109 700.954C611.077 688.056 623.874 669.192 629.215 647.73C634.557 626.269 632.095 603.608 622.269 583.794L825.371 380.714C837.956 386.954 851.789 390.269 865.836 390.411C879.883 390.554 893.78 387.52 906.49 381.537C919.199 375.554 930.392 366.776 939.231 355.859C948.07 344.943 954.328 332.17 957.536 318.495C960.745 304.82 960.82 290.597 957.758 276.889C954.696 263.181 948.575 250.342 939.852 239.332C931.129 228.322 920.031 219.425 907.386 213.307C894.741 207.189 880.877 204.007 866.829 204H866.798ZM538.817 290.467C536.549 290.467 534.312 290.562 532.075 290.593C529.807 290.656 527.57 290.656 525.302 290.751C511.22 291.318 497.17 292.767 483.245 295.098L482.3 295.255L476.472 296.295L473.164 296.925C470.117 297.517 467.082 298.168 464.06 298.878L463.052 299.13C435.108 305.642 408.112 315.698 382.718 329.054L377.835 331.858C375.85 332.929 373.897 334.063 371.944 335.165C370.495 336.016 369.014 336.772 367.534 337.654L367.187 337.811L366.053 338.441V338.504L369.55 344.3L468.785 509.044C472.663 506.719 476.659 504.595 480.756 502.682C496.829 495.012 514.258 490.591 532.044 489.672C534.281 489.546 536.549 489.42 538.786 489.42L538.817 290.467ZM552.3 290.782V490.271C562.539 491.342 572.683 493.515 582.544 496.854L729.349 350.065C723.899 346.285 718.386 342.599 712.715 339.134L711.896 338.662C710.132 337.559 708.368 336.551 706.604 335.512L703.516 333.748L700.397 332.015C698.609 331.036 696.813 330.07 695.01 329.117L694.16 328.676C679.69 321.112 664.686 314.616 649.268 309.241C627.53 301.65 605.068 296.326 582.229 293.334L579.425 292.956L576.589 292.641C574.807 292.418 573.022 292.218 571.234 292.042L569.69 291.916L563.264 291.381C560.589 291.17 557.911 291.012 555.23 290.908C554.254 290.814 553.277 290.814 552.3 290.782ZM354.649 345.686C339.423 355.572 325.087 366.765 311.804 379.139L452.34 519.66L452.908 520.227C454.451 518.967 455.995 517.77 457.602 516.573L457.255 516.006L354.649 345.686ZM302.038 388.526C300.463 390.101 298.951 391.771 297.407 393.377L292.713 398.26C282.317 409.505 272.866 421.254 264.297 433.476L263.069 435.24C260.737 438.621 258.469 442.045 256.264 445.509C224.541 495.335 206.604 552.683 204.284 611.702L204.095 618.475L204 625.216H403.006C403.006 622.948 403.227 620.711 403.321 618.475C403.479 616.207 403.51 613.939 403.731 611.702C406.283 585.81 416.301 560.515 433.722 539.253C435.14 537.52 436.746 535.914 438.259 534.213C439.771 532.575 441.188 530.842 442.795 529.236L302.038 388.526ZM814.124 434.642L667.224 581.526C670.564 591.354 672.738 601.497 673.84 611.734H873.319L873.193 608.773C872.952 603.979 872.615 599.19 872.185 594.409L872.027 592.771C871.778 590.238 871.505 587.707 871.208 585.18V584.896L870.169 577.336V577.053C867.869 561.149 864.426 545.432 859.867 530.023L859.773 529.708C859.056 527.309 858.32 524.915 857.567 522.526L857.252 521.581C856.544 519.434 855.82 517.292 855.079 515.155L854.449 513.423C853.005 509.11 851.398 504.855 849.629 500.666C848.689 498.267 847.713 495.883 846.699 493.515C846.044 492 845.383 490.488 844.714 488.979L843.548 486.428C842.721 484.626 841.881 482.831 841.028 481.041L840.272 479.403L837.248 473.292L836.807 472.442C835.654 470.203 834.478 467.977 833.278 465.764L833.152 465.512C827.373 454.885 821.021 444.58 814.124 434.642ZM674.565 625.216C674.565 627.452 674.376 629.689 674.25 631.957C674.155 634.225 674.092 636.461 673.872 638.698C671.262 665.292 660.825 690.515 643.881 711.179C642.463 712.911 640.856 714.549 639.344 716.219C637.832 717.888 636.414 719.621 634.808 721.227L775.533 861.937C777.14 860.331 778.652 858.661 780.195 857.055C781.771 855.417 783.346 853.81 784.858 852.172C795.285 840.895 804.799 829.083 813.368 816.829L814.376 815.38L817.464 810.844L820.141 806.75L821.402 804.765C853.074 754.969 870.978 697.666 873.288 638.698C873.382 636.461 873.414 634.193 873.477 631.957C873.508 629.72 873.603 627.452 873.603 625.216H674.565ZM204.315 638.698L204.441 641.627L204.756 647.266L204.914 649.66L205.449 656.149L205.607 657.598C205.827 659.992 206.079 662.417 206.363 664.78L206.457 665.473C206.77 668.081 207.116 670.685 207.497 673.285C209.765 689.192 213.23 704.942 217.798 720.44L217.861 720.629C218.555 723.054 219.342 725.48 220.098 727.874L220.224 728.315L220.382 728.756C221.92 733.389 223.527 737.999 225.202 742.584L226.147 745.104L228.006 749.766C228.944 752.176 229.921 754.57 230.935 756.948L232.889 761.358L234.086 764.004L236.543 769.328L237.393 771.029C239.649 775.713 242.012 780.345 244.482 784.92L245.269 786.275L415.639 683.648L416.269 683.27C409.607 669.243 405.398 654.178 403.825 638.729H403.038L204.315 638.698ZM220.224 728.315L213.735 730.173L213.798 730.331L220.224 728.315ZM422.633 695.209L252.043 797.961C254.657 802.34 257.398 806.56 260.202 810.75L260.454 811.191L260.58 811.349L260.832 811.789C261.052 812.167 261.304 812.482 261.557 812.797L261.588 812.86C264.611 817.314 267.742 821.725 270.976 826.027L271.165 826.279C274.119 830.214 277.165 834.079 280.301 837.871L281.341 839.131C282.695 840.769 284.05 842.376 285.436 843.951L287.232 845.998L290.76 849.999L292.776 852.172L293.69 853.149L296.305 855.984L297.407 857.086C298.951 858.693 300.495 860.331 302.101 861.906L442.795 721.227C439.617 718.026 436.619 714.65 433.817 711.116C429.712 706.082 425.996 700.766 422.633 695.209ZM624.758 730.205C623.183 731.465 621.608 732.693 620.033 733.859L620.379 734.426L722.985 904.745C727.742 901.627 732.436 898.445 737.036 895.075C746.959 887.767 756.568 879.829 765.83 871.261L625.325 730.772L624.758 730.205ZM452.845 730.299L452.372 730.772L311.867 871.261C313.888 873.139 315.936 874.987 318.01 876.805C318.703 877.435 319.365 878.065 320.058 878.632L324.847 882.727C327.08 884.583 329.338 886.411 331.62 888.208L332.344 888.744L338.362 893.406L338.614 893.563C347.056 899.863 355.846 905.817 364.887 911.329L365.832 911.896L370.999 914.951L374.181 916.747C376.972 918.381 379.808 919.935 382.687 921.409C382.939 921.535 383.191 921.724 383.474 921.818C388.578 924.496 393.776 926.984 399.005 929.378L403.983 917.251L474.645 745.64L474.928 745.01C467.106 740.836 459.71 735.909 452.845 730.299ZM608.817 741.419C606.896 742.584 604.911 743.624 602.926 744.695C571.317 761.674 534.28 765.478 499.879 755.279C497.705 754.649 495.626 753.798 493.484 753.042C491.373 752.286 489.199 751.656 487.12 750.774L416.49 922.259L413.717 928.969L411.355 934.733L411.89 934.985C412.084 935.073 412.284 935.147 412.489 935.206L412.646 935.3C414.285 935.962 415.986 936.56 417.655 937.19C419.766 938.041 421.845 938.86 423.956 939.616L427.169 940.876C449.285 948.656 472.219 954.106 495.469 957.193L498.209 957.571L501.045 957.886L506.463 958.484C509.105 958.762 511.752 958.993 514.402 959.177C515.127 959.209 515.914 959.209 516.639 959.272L522.435 959.618L525.964 959.776C529.721 959.945 533.481 960.018 537.242 959.996H538.817C557.745 960.015 576.641 958.434 595.302 955.271L601.131 954.2L604.438 953.57L607.872 952.846L613.543 951.586L614.551 951.334C642.495 944.823 669.492 934.767 694.884 921.409C696.523 920.527 698.161 919.519 699.799 918.605C701.784 917.534 703.737 916.4 705.69 915.298C707.045 914.542 708.431 913.817 709.785 912.998L709.88 912.935L709.943 912.904L710.006 912.872L710.226 912.746L711.55 911.959L708.084 906.194L704.619 900.399L608.817 741.419ZM711.55 911.959L710.226 912.746L711.581 911.99L711.55 911.959Z" fill="white"/>
<defs>
<linearGradient id="paint0_linear_11603_250" x1="581.5" y1="0" x2="581.5" y2="1163" gradientUnits="userSpaceOnUse">
<stop stop-color="#4D841E"/>
<stop offset="1" stop-color="#8BBD60"/>
</linearGradient>
</defs>
</svg>
