<svg width="60" height="60" viewBox="0 0 60 60" fill="none" xmlns="http://www.w3.org/2000/svg">
<g id="No App Icon">
<rect width="60" height="60" rx="14" fill="url(#paint0_linear_199_20801)"/>
<path id="Vector" d="M31.0535 40.8733C32.7882 39.05 33.905 36.9603 34.024 34.4406C34.0106 34.4305 33.9969 34.42 33.9834 34.4099C33.9443 34.4438 33.8912 34.4704 33.8689 34.5124C33.7611 34.7177 33.6508 34.9227 33.5615 35.1358C33.3954 35.5325 33.2527 35.9382 33.0824 36.3328C32.9588 36.6189 32.7879 36.8833 32.5256 37.0709C32.4307 37.1387 32.3063 37.1925 32.1906 37.2032C31.3623 37.2808 30.5332 37.2545 29.7073 37.1694C28.444 37.0393 27.1843 36.8717 25.919 36.7669C24.6166 36.6592 23.3286 36.746 22.1089 37.2681C21.3155 37.6077 20.5797 38.0487 19.8661 38.5198C18.5571 39.3839 17.1223 40.0064 15.6773 40.6078C14.9332 40.9174 14.1378 41.0109 13.3307 40.999C12.9816 40.9938 12.8512 40.8317 12.9748 40.5166C13.0619 40.2942 13.1866 40.0805 13.3256 39.8836C13.581 39.5223 13.8594 39.1763 14.1276 38.8236C14.1625 38.7778 14.1954 38.7306 14.2374 38.6724C14.1721 38.627 14.1214 38.5786 14.0605 38.5514C13.6807 38.3823 13.3635 38.1278 13.0493 37.8683C12.7322 37.6066 12.4123 37.3483 12 37.1963C12.3231 36.7654 12.717 36.4718 13.2504 36.3777C13.8412 36.2735 14.4284 36.3398 15.0141 36.4203C15.8143 36.5306 16.6124 36.658 17.4141 36.7579C17.6668 36.7895 17.9294 36.7686 18.1854 36.7483C18.4127 36.7304 18.6189 36.6427 18.7714 36.4669C19.1676 36.0106 19.6002 35.5782 19.9499 35.0903C20.6552 34.1053 21.5384 33.3119 22.5388 32.6225C23.2996 32.0981 24.1559 31.7938 25.0301 31.5138C27.0545 30.8654 29.0786 30.2168 31.0956 29.5474C32.2323 29.1698 33.3342 28.7094 34.3725 28.1126C35.4696 27.4823 36.3307 26.6177 37.013 25.5892C37.6279 24.6623 38.1951 23.7059 38.7838 22.7628C39.2785 21.9703 39.8039 21.2001 40.4713 20.5298C41.3915 19.6055 42.4895 19.0076 43.813 18.8474C44.4032 18.7762 44.9993 18.7519 45.5931 18.7085C46.04 18.6757 46.455 18.542 46.8578 18.3558C47.121 18.2342 47.3925 18.1279 47.6667 18.0312C47.7654 17.9964 47.8824 17.9979 47.9901 18.0022C48.2145 18.0112 48.3848 18.1311 48.401 18.3474C48.4245 18.6618 48.4218 18.9818 48.3911 19.296C48.2906 20.3279 47.6867 21.0608 46.8584 21.6501C46.3619 22.0033 45.852 22.3389 45.3642 22.7029C45.1178 22.8867 44.8994 23.1083 44.6822 23.3257C44.2946 23.7131 44.1218 24.208 43.998 24.7167C43.7405 25.7751 43.4991 26.8372 43.2491 27.8972C42.8881 29.4278 42.4784 30.9442 41.8438 32.394C41.3894 33.4324 40.8371 34.4145 40.0426 35.2513C39.5073 35.8151 38.9264 36.2222 38.2811 36.4872C38.3025 36.2769 38.324 36.0748 38.3434 35.8724C38.37 35.5945 38.3959 35.3162 38.4201 35.0379C38.4243 34.9905 38.4252 34.9404 38.4138 34.8943C38.407 34.8659 38.3768 34.8257 38.353 34.8225C38.3201 34.8185 38.2706 34.8352 38.2506 34.8599C38.2181 34.9001 38.2008 34.9531 38.1814 35.0023C37.7747 36.0308 37.2893 37.0185 36.6123 37.9109C35.5343 39.3318 34.129 40.2948 32.369 40.7442C31.9468 40.8519 31.5001 40.8693 31.0645 40.9284C31.0607 40.9098 31.0571 40.891 31.0532 40.8725L31.0535 40.8733Z" fill="white"/>
</g>
<defs>
<linearGradient id="paint0_linear_199_20801" x1="30" y1="0" x2="30" y2="60" gradientUnits="userSpaceOnUse">
<stop stop-color="#003647"/>
<stop offset="1" stop-color="#3F73C1"/>
</linearGradient>
</defs>
</svg>
