<svg width="60" height="60" viewBox="0 0 60 60" fill="none" xmlns="http://www.w3.org/2000/svg">
<g id="No App Icon">
<rect width="60" height="60" rx="14" fill="url(#paint0_linear_199_20795)"/>
<path id="Vector" d="M19.5162 38.7663C19.4732 38.7605 19.455 38.7987 19.4298 38.8206C18.5061 39.6224 17.4555 40.181 16.299 40.539C15.7076 40.7219 15.1037 40.845 14.4908 40.9156C13.8018 40.9948 13.1107 41.0172 12.4171 40.9873C11.9778 40.9682 11.5396 40.9409 11.103 40.8882C10.42 40.8061 9.74435 40.68 9.07717 40.5083C7.69863 40.1537 6.38615 39.6277 5.14299 38.9218C5.05111 38.8696 5.02787 38.7969 5.07327 38.7037C5.74086 37.3454 6.40844 35.9875 7.07603 34.6291C7.13521 34.5086 7.22128 34.4819 7.33423 34.5491C8.11126 35.0078 8.90936 35.4205 9.76462 35.7075C10.3013 35.8879 10.8497 36.0111 11.4111 36.0754C12.0523 36.1488 12.6952 36.1633 13.3385 36.1218C13.76 36.0945 14.1763 36.0302 14.5687 35.8556C15.0547 35.6391 15.4162 35.2981 15.5881 34.7722C15.7766 34.1961 15.6383 33.7092 15.1811 33.321C14.8739 33.0601 14.522 32.8789 14.158 32.7196C13.5294 32.445 12.876 32.2426 12.2246 32.0344C11.0811 31.669 9.95391 31.2605 8.88342 30.7035C8.15706 30.3257 7.46839 29.8893 6.85715 29.3336C5.91961 28.4812 5.31282 27.4369 5.10326 26.1636C4.93667 25.1516 4.96423 24.1471 5.24027 23.1566C5.51184 22.1811 6.00149 21.3334 6.69258 20.6067C7.47974 19.7789 8.41972 19.1916 9.46305 18.769C10.2328 18.4571 11.0309 18.2534 11.8501 18.1327C12.6344 18.017 13.4224 17.9785 14.2132 18.0112C14.8828 18.039 15.5488 18.1099 16.2115 18.2144C17.3663 18.3965 18.4968 18.6777 19.6033 19.0622C20.2462 19.2853 20.8741 19.5458 21.4825 19.8548C21.5064 19.8668 21.5299 19.8801 21.5542 19.8905C21.6049 19.912 21.6037 19.9431 21.5789 19.9867C21.4914 20.1393 21.4058 20.2932 21.3199 20.4471C20.6288 21.6793 19.9377 22.9111 19.2466 24.1433C19.2333 24.167 19.2191 24.1898 19.2057 24.2134C19.1895 24.2416 19.1672 24.2479 19.1384 24.2338C19.0987 24.2139 19.0586 24.1944 19.0184 24.1749C18.4331 23.8912 17.8389 23.6307 17.226 23.4155C16.5868 23.1907 15.9334 23.0264 15.2626 22.9422C14.9501 22.9028 14.6355 22.8779 14.3214 22.8584C13.9315 22.834 13.5415 22.8161 13.1508 22.8526C12.6847 22.8962 12.2282 22.9804 11.7998 23.1836C11.5266 23.313 11.2826 23.4831 11.1018 23.7356C10.8679 24.0625 10.8088 24.4892 11.099 24.8841C11.3195 25.1835 11.6048 25.4046 11.9113 25.6C12.5468 26.0052 13.2343 26.2963 13.9343 26.5605C14.6205 26.8197 15.3246 27.0251 16.0157 27.2702C16.8584 27.5688 17.6881 27.8994 18.4765 28.3303C19.2085 28.7305 19.8871 29.2058 20.4614 29.8259C21.161 30.5811 21.6045 31.4691 21.7836 32.4944C21.7865 32.5097 21.78 32.5305 21.8059 32.5396C21.8469 32.5139 21.8481 32.4637 21.8623 32.4243C22.5039 30.6794 23.1435 28.9337 23.784 27.1885C24.4601 25.3453 25.1374 23.503 25.8135 21.6598C26.1937 20.6237 26.5731 19.5873 26.9545 18.5516C27.0315 18.343 26.9837 18.3833 27.1957 18.3833C29.0959 18.382 30.9965 18.3824 32.8967 18.3824C32.9235 18.3824 32.9506 18.3862 32.9766 18.3816C33.0519 18.3691 33.0844 18.404 33.1095 18.4757C33.2607 18.9071 33.4172 19.3364 33.5716 19.7665C34.0762 21.1712 34.5813 22.5764 35.0855 23.9816C35.7673 25.8803 36.4482 27.7791 37.1304 29.6774C37.7117 31.2953 38.2941 32.9125 38.8758 34.5304C38.969 34.7896 39.061 35.0493 39.1753 35.3081C39.1774 35.2633 39.1806 35.2181 39.1806 35.1733C39.1806 34.0651 39.1806 32.9569 39.1806 31.8486C39.1806 27.4203 39.1806 22.992 39.181 18.5637C39.181 18.3555 39.1526 18.3828 39.3561 18.3828C41.5539 18.382 43.7516 18.3816 45.9497 18.3828C46.5756 18.3828 47.2014 18.3982 47.826 18.443C48.8673 18.5176 49.8985 18.6628 50.9057 18.9548C51.7124 19.1883 52.4813 19.5089 53.187 19.9767C54.4159 20.7913 55.2209 21.9286 55.6405 23.357C55.8249 23.9853 55.9246 24.6286 55.9708 25.2827C56.0028 25.7364 56.0089 26.1906 55.987 26.6439C55.9323 27.7861 55.6834 28.879 55.15 29.8935C54.5534 31.0287 53.6872 31.8918 52.5944 32.523C51.7525 33.0095 50.8474 33.3173 49.9017 33.5081C49.0412 33.6818 48.1713 33.7528 47.295 33.7528C46.5978 33.7528 45.9007 33.7528 45.2039 33.7528C45.1727 33.7528 45.1415 33.7544 45.1107 33.7528C45.0572 33.7494 45.041 33.7781 45.0438 33.8274C45.0458 33.8635 45.0438 33.9 45.0438 33.9365C45.0438 36.1073 45.0438 38.2786 45.0434 40.4494C45.0434 40.6505 45.0697 40.6232 44.8752 40.6232C41.532 40.6236 38.1884 40.624 34.8451 40.6232C34.651 40.6232 34.6915 40.6559 34.6307 40.4618C34.3194 39.4685 34.0102 38.4743 33.6997 37.4806C33.6559 37.34 33.6547 37.3391 33.5209 37.3823C32.7739 37.6224 32.0094 37.7709 31.23 37.8489C30.4679 37.9252 29.7055 37.9293 28.9435 37.8642C28.0837 37.7908 27.2402 37.6274 26.4182 37.3537C26.4057 37.3495 26.3927 37.3462 26.3797 37.342C26.2812 37.3109 26.28 37.3105 26.248 37.4055C26.1989 37.5515 26.1511 37.6975 26.1041 37.8439C25.8204 38.7269 25.5374 39.6103 25.2537 40.4938C25.2119 40.6236 25.2111 40.6236 25.0826 40.6236C23.058 40.6236 21.0333 40.6236 19.0087 40.6232C18.9657 40.6232 18.9211 40.6344 18.879 40.6103C18.8709 40.5522 18.9017 40.5045 18.9195 40.4548C19.106 39.9401 19.2953 39.4266 19.4817 38.9119C19.4983 38.8663 19.5259 38.8219 19.5186 38.7692C19.53 38.7651 19.5454 38.7601 19.5243 38.7493C19.5166 38.7451 19.5109 38.7563 19.515 38.7663H19.5162ZM46.1731 23.0671C45.7892 23.0671 45.4653 23.0662 45.1415 23.0675C45.047 23.0675 45.045 23.07 45.0442 23.1654C45.043 23.3785 45.0438 23.5921 45.0438 23.8053C45.0438 25.4307 45.0438 27.0562 45.0438 28.6816C45.0438 28.8313 45.0292 28.8218 45.1788 28.8218C45.5205 28.8218 45.8622 28.8218 46.2039 28.8218C46.6343 28.8218 47.0644 28.8267 47.4928 28.7707C47.9391 28.7127 48.3748 28.6165 48.7871 28.4269C49.4336 28.1295 49.8989 27.6559 50.1214 26.957C50.284 26.4473 50.3063 25.9239 50.2357 25.3959C50.1316 24.6149 49.7586 24.011 49.0866 23.612C48.5374 23.286 47.9326 23.16 47.31 23.0973C46.9116 23.0571 46.5119 23.07 46.1726 23.0666L46.1731 23.0671ZM30.0168 32.939C30.2122 32.9386 30.4067 32.932 30.6017 32.9137C31.1161 32.8656 31.6175 32.7594 32.1063 32.5886C32.2028 32.555 32.2032 32.5537 32.1748 32.4591C31.9592 31.7445 31.7435 31.0299 31.5275 30.3157C31.1485 29.0644 30.7691 27.8131 30.3901 26.5622C30.2786 26.1943 30.1668 25.8264 30.0541 25.4585C30.0468 25.4345 30.0492 25.3976 30.016 25.3942C29.9722 25.3901 29.9763 25.4336 29.9649 25.4606C29.9596 25.473 29.9568 25.4863 29.9527 25.4996C29.866 25.7804 29.7793 26.0616 29.6921 26.3424C29.1198 28.1876 28.5475 30.0324 27.9755 31.8777C27.9151 32.0722 27.8576 32.2675 27.7947 32.4612C27.7773 32.5151 27.7797 32.5483 27.8405 32.5608C27.862 32.5653 27.8819 32.5765 27.903 32.584C28.588 32.827 29.2933 32.944 30.018 32.9403L30.0168 32.939Z" fill="white"/>
</g>
<defs>
<linearGradient id="paint0_linear_199_20795" x1="30" y1="0" x2="30" y2="60" gradientUnits="userSpaceOnUse">
<stop stop-color="#0059B2"/>
<stop offset="1" stop-color="#00ABF3"/>
</linearGradient>
</defs>
</svg>
