<svg width="60" height="60" viewBox="0 0 60 60" fill="none" xmlns="http://www.w3.org/2000/svg">
<g id="No App Icon">
<rect width="60" height="60" rx="14" fill="url(#paint0_linear_199_20779)"/>
<g id="Group">
<path id="Vector" d="M27.8007 33.6517C27.8374 33.5268 27.8675 33.3854 27.9199 33.2527C28.2597 32.392 28.5983 31.5309 28.9488 30.6746C29.3177 29.7728 29.56 28.8435 29.6296 27.8695C29.7002 26.8836 29.6632 25.903 29.5025 24.929C29.4028 24.3251 29.3112 23.7156 29.1505 23.1265C28.8073 21.8668 27.8327 21.1365 26.5265 21.0858C25.3841 21.0414 24.3361 21.3759 23.3195 21.849C23.189 21.9097 23.0616 21.9769 22.9 22.0573C22.9405 21.7097 22.9681 21.3946 23.0152 21.0824C23.1874 19.9432 23.4588 18.8299 23.9169 17.7677C24.4277 16.5824 25.1234 15.5321 26.155 14.7292C26.9655 14.0984 27.8807 13.6845 28.8957 13.5459C32.4469 13.0612 35.4782 14.1232 37.9776 16.6741C39.1291 17.8493 39.9957 19.2173 40.5894 20.7535C40.6063 20.797 40.6208 20.8415 40.6346 20.8862C40.6371 20.8943 40.6305 20.9056 40.6233 20.935C40.5301 20.9291 40.4334 20.9216 40.3365 20.9166C39.4777 20.8724 38.6237 20.8762 37.8082 21.2041C36.7762 21.619 36.2171 22.3906 36.0953 23.486C35.9752 24.5658 36.2591 25.5804 36.6153 26.5795C37.1239 28.0069 37.8499 29.331 38.5829 30.6514C38.7645 30.9787 38.9333 31.3138 39.093 31.6523C39.3842 32.27 39.7767 32.8197 40.2053 33.3466C40.2806 33.4392 40.3525 33.5347 40.4385 33.6454C40.3475 33.6805 40.2684 33.7124 40.1884 33.7418C39.4272 34.0206 39.0199 34.5863 38.891 35.3629C38.8461 35.6332 38.8511 35.9117 38.8279 36.1857C38.7846 36.6986 38.7445 37.2117 38.6895 37.7233C38.628 38.2968 38.5524 38.8687 38.4818 39.441C38.3965 40.1319 38.3171 40.824 38.2224 41.5136C38.1169 42.2805 38.0134 43.048 37.8778 43.8099C37.8019 44.2373 37.688 44.6622 37.5474 45.0736C37.2569 45.9228 36.6761 46.521 35.8509 46.8727C35.0245 47.2247 34.167 47.455 33.2592 47.4456C32.3547 47.4365 31.6355 47.0692 31.1266 46.3173C30.7018 45.6897 30.458 44.9998 30.3736 44.2426C30.105 41.8352 30.1216 39.4194 30.1332 37.0033C30.1351 36.6285 30.1558 36.2533 30.1599 35.8785C30.168 35.101 29.6488 33.9674 28.4662 33.7096C28.2616 33.6651 28.0457 33.6714 27.802 33.6517H27.8007Z" fill="white"/>
<path id="Vector_2" d="M23.5298 33.3335C23.3672 33.5106 23.2317 33.6539 23.1015 33.8019C22.2819 34.7336 21.4674 35.6701 20.6419 36.5966C20.442 36.8209 20.2239 37.0362 19.9849 37.217C19.5563 37.5409 19.0979 37.5409 18.6442 37.2518C18.1584 36.9423 17.8048 36.5049 17.4848 36.0384C16.8475 35.1097 16.3791 34.0938 15.9605 33.0547C15.1567 31.0594 14.5439 29.0034 14.0497 26.9133C13.7498 25.6455 13.494 24.3671 13.2399 23.0892C13.0422 22.0961 12.9663 21.0893 13.0137 20.0771C13.0676 18.9285 13.2358 17.8011 13.7102 16.7392C14.4206 15.1485 15.6552 14.1882 17.3285 13.7611C18.3552 13.4993 19.3988 13.4648 20.4508 13.534C21.9098 13.6297 23.3252 13.9417 24.7155 14.3804C24.7393 14.3879 24.7629 14.3966 24.7992 14.4091C24.7807 14.4379 24.771 14.4608 24.755 14.477C23.7143 15.5362 23.0302 16.8055 22.5555 18.1966C22.2088 19.2129 21.9864 20.257 21.858 21.323C21.7702 22.053 21.7181 22.7839 21.7416 23.5185C21.7573 24.0126 21.7871 24.5063 21.8085 25.0004C21.8552 26.0795 21.7899 27.153 21.6509 28.2234C21.4294 29.9311 21.8351 31.4649 22.9578 32.7891C23.1219 32.9824 23.3264 33.142 23.5294 33.3335H23.5298Z" fill="white"/>
<path id="Vector_3" d="M41.1629 32.7247C41.0105 32.6149 41.0023 32.5195 41.0876 32.3705C41.5316 31.5949 41.7588 30.7554 41.8266 29.8649C41.889 29.0439 41.7996 28.2342 41.7032 27.4229C41.6104 26.6425 41.5093 25.8606 41.5759 25.0734C41.6195 24.5565 41.7092 24.0434 41.772 23.5277C41.8234 23.1047 41.8561 22.6795 41.9135 22.2574C42.0371 21.3494 41.745 20.53 41.3772 19.7296C40.42 17.6464 39.057 15.8823 37.2054 14.5085C36.6259 14.0786 36.0075 13.7115 35.3555 13.4015C35.2899 13.3702 35.2247 13.3389 35.1158 13.2866C35.3668 13.2416 35.5758 13.1997 35.7866 13.1671C36.6655 13.0313 37.5509 12.9728 38.4385 13.0119C41.034 13.1261 43.3097 13.9781 45.107 15.919C45.4854 16.3276 45.8559 16.7459 45.9303 17.3232C45.9946 17.8222 46.0642 18.3276 46.0508 18.8279C46.0329 19.4912 45.9638 20.1567 45.8678 20.8141C45.7097 21.8942 45.4477 22.9533 45.1358 23.9999C44.2319 27.0339 42.9348 29.8909 41.2615 32.5789C41.232 32.6265 41.199 32.6719 41.1629 32.7254V32.7247Z" fill="white"/>
<path id="Vector_4" d="M28.5541 26.9908C28.5751 28.3071 28.2607 29.5446 27.7053 30.7308C27.3125 31.5702 26.9896 32.4372 26.7298 33.3268C26.7 33.4288 26.6473 33.4422 26.5607 33.4388C25.7801 33.4081 25.0804 33.1463 24.4642 32.6766C23.483 31.9288 22.9267 30.931 22.7538 29.7145C22.6744 29.1566 22.7334 28.6044 22.7984 28.0509C22.8439 27.6638 22.8844 27.2756 22.9082 26.8866C22.9769 25.7674 22.9411 24.6492 22.8652 23.5312C22.8611 23.4712 22.9123 23.3842 22.9644 23.3466C23.6208 22.8773 24.3531 22.5697 25.1281 22.3585C25.5419 22.2456 25.9636 22.1855 26.3954 22.1949C27.3445 22.2155 27.9225 22.6702 28.1283 23.5932C28.3194 24.4508 28.4675 25.3163 28.5145 26.1958C28.5286 26.4608 28.5406 26.7258 28.5537 26.9908H28.5541ZM26.4283 22.7171C26.4249 22.7293 26.4214 22.7415 26.418 22.754C26.3144 22.7643 26.2102 22.7703 26.1076 22.7872C26.0414 22.7978 25.9759 22.8194 25.9134 22.8444C25.6565 22.9477 25.568 23.1605 25.6863 23.4101C25.8312 23.7162 26.0731 23.9239 26.3885 24.0394C26.8124 24.1942 27.336 24.0159 27.5899 23.6414C27.7276 23.438 27.7063 23.2471 27.518 23.0888C27.4474 23.0294 27.3674 22.9674 27.2811 22.9418C26.9994 22.8582 26.7129 22.7913 26.428 22.7177L26.4283 22.7171Z" fill="white"/>
<path id="Vector_5" d="M40.8094 22.1002C40.7695 22.4688 40.7325 22.8299 40.6914 23.1909C40.6057 23.9444 40.484 24.6959 40.4432 25.4519C40.4153 25.9725 40.4928 26.4997 40.5339 27.0232C40.5957 27.8054 40.697 28.586 40.725 29.3695C40.7488 30.0372 40.6252 30.6952 40.3629 31.3185C40.3409 31.3707 40.3168 31.4224 40.2832 31.4981C40.249 31.4455 40.2226 31.4114 40.2025 31.3735C39.7557 30.5266 39.3093 29.6796 38.8634 28.832C38.2861 27.7344 37.7517 26.6183 37.4151 25.4193C37.2698 24.9021 37.1647 24.3758 37.1841 23.8358C37.2077 23.1922 37.4028 22.6237 38.0335 22.3314C38.3222 22.1978 38.6425 22.1205 38.9563 22.0561C39.3864 21.9675 40.3375 22.0057 40.8087 22.1002H40.8094ZM39.1094 22.4666C38.8013 22.4929 38.5114 22.5498 38.2428 22.6881C37.8885 22.8708 37.859 23.1187 38.1606 23.3815C38.8016 23.9403 39.5505 23.527 39.7878 22.9769C39.8624 22.8036 39.8047 22.6528 39.6205 22.5858C39.4574 22.5264 39.2804 22.5048 39.1094 22.4663V22.4666Z" fill="white"/>
<path id="Vector_6" d="M23.435 37.4621C23.7415 37.3873 24.0484 37.3141 24.3543 37.2369C24.7327 37.1414 25.1133 37.0532 25.4873 36.9427C26.1149 36.7578 26.6084 36.3814 26.9994 35.8605C27.187 35.6105 27.3947 35.3758 27.5936 35.1342C27.6234 35.098 27.6554 35.0635 27.6877 35.0294C27.9993 34.7 28.2205 34.674 28.6246 34.9997C28.9485 35.2607 29.0959 35.6302 29.0112 36.0588C28.9968 36.1324 28.9579 36.2068 28.913 36.2685C28.2205 37.2225 27.3075 37.8126 26.1183 37.9433C25.3559 38.0272 24.6094 37.949 23.8796 37.7187C23.7277 37.6708 23.5853 37.5929 23.4384 37.5288C23.4372 37.5066 23.4363 37.4843 23.435 37.4618V37.4621Z" fill="white"/>
<path id="Vector_7" d="M45.8917 34.9415C45.2005 35.505 44.4691 35.9331 43.6263 36.1515C42.7424 36.3808 41.8422 36.4794 40.9305 36.4302C40.6578 36.4155 40.3883 36.3389 40.1178 36.2879C39.9898 36.2638 39.9292 36.1812 39.9446 36.0526C39.9728 35.8157 39.9873 35.5754 40.0416 35.3442C40.1046 35.0751 40.2825 34.8877 40.5499 34.7945C40.5844 34.7826 40.6189 34.771 40.6525 34.7566C40.9019 34.6499 41.1168 34.643 41.3729 34.8098C41.8077 35.093 42.3232 35.1656 42.8362 35.205C43.8124 35.2798 44.7709 35.1465 45.7248 34.9603C45.7696 34.9515 45.8161 34.9497 45.8917 34.9412V34.9415Z" fill="white"/>
</g>
</g>
<defs>
<linearGradient id="paint0_linear_199_20779" x1="30" y1="0" x2="30" y2="60" gradientUnits="userSpaceOnUse">
<stop stop-color="#336791"/>
<stop offset="1" stop-color="#009CDF"/>
</linearGradient>
</defs>
</svg>
