<svg width="60" height="60" viewBox="0 0 60 60" fill="none" xmlns="http://www.w3.org/2000/svg">
<g id="No App Icon">
<rect width="60" height="60" rx="14" fill="url(#paint0_linear_230_7803)"/>
<g id="Group">
<path id="Vector" d="M32.8586 46.0002C31.9634 45.8177 31.0831 45.6368 30.2024 45.4588C29.1774 45.2514 28.1513 45.0472 27.1263 44.8394C26.0029 44.6119 24.8799 44.3812 23.7565 44.1529C21.9875 43.794 20.2188 43.4347 18.4494 43.0782C17.0311 42.7924 15.6124 42.5091 14.1929 42.2281C14.0546 42.2008 14 42.1482 14 41.9926C14.0044 34.0117 14.0044 26.0307 14 18.0498C14 17.8693 14.051 17.7998 14.2322 17.7644C15.3175 17.5534 16.3995 17.3263 17.4831 17.1081C19.3184 16.7387 21.155 16.375 22.9903 16.0036C24.4605 15.7062 25.929 15.3999 27.3987 15.1009C28.6921 14.838 29.9866 14.5804 31.2804 14.3199C31.8015 14.215 32.3226 14.1085 32.8586 14V45.9998V46.0002ZM19.9464 32.8441C19.9352 32.91 19.9247 32.9426 19.9243 32.9747C19.9235 33.7572 19.9263 34.5402 19.9207 35.3227C19.9195 35.467 20.0079 35.5 20.112 35.5374C21.4885 36.0325 22.8943 36.1652 24.3327 35.8705C26.2131 35.4851 27.514 34.1222 27.5377 32.2971C27.5474 31.5467 27.3875 30.8534 26.9419 30.238C26.481 29.6018 25.8539 29.1749 25.1552 28.8514C24.5979 28.5934 24.0161 28.3884 23.46 28.1275C23.149 27.9812 22.8349 27.8068 22.5817 27.5789C22.0843 27.1312 22.1687 26.333 22.7477 26.0026C23.0116 25.8519 23.3311 25.7494 23.6336 25.724C24.5517 25.6473 25.4284 25.8318 26.2472 26.2662C26.3075 26.298 26.3734 26.3185 26.4493 26.349C26.4606 26.2851 26.4714 26.253 26.4714 26.2204C26.4726 25.4712 26.4706 24.7217 26.475 23.9725C26.4758 23.8463 26.4156 23.7876 26.3055 23.7643C25.7711 23.6525 25.2407 23.4998 24.7003 23.4407C23.6075 23.3214 22.5339 23.4299 21.5363 23.9359C20.2747 24.5758 19.5583 25.5946 19.5326 27.0279C19.5141 28.0463 19.9532 28.8731 20.7323 29.5242C21.4053 30.0869 22.1916 30.4317 23.004 30.7312C23.5187 30.9209 24.0346 31.1174 24.4412 31.5053C25.0362 32.0724 24.9169 33.0426 24.1913 33.4249C23.949 33.5527 23.6669 33.6423 23.3949 33.6704C22.4592 33.7669 21.5576 33.5973 20.6978 33.2199C20.4499 33.111 20.2128 32.9771 19.9476 32.8429L19.9464 32.8441Z" fill="white"/>
<path id="Vector_2" d="M38.3317 36.2117C39.6737 35.3448 40.7509 34.2516 41.6328 32.9204C40.5134 32.3175 39.8601 31.4132 39.8565 30.1299C39.8533 28.8481 40.5074 27.9523 41.6332 27.3345C40.7613 26.0102 39.6757 24.9206 38.3374 24.0468C38.2968 24.1059 38.2606 24.1505 38.2337 24.1995C37.5109 25.5134 35.9512 26.1099 34.5324 25.6223C34.3762 25.5685 34.3356 25.4901 34.3364 25.3329C34.3424 23.6003 34.3436 21.8672 34.3368 20.1345C34.336 19.9508 34.3858 19.8728 34.5662 19.8142C36.0259 19.3395 37.59 19.9601 38.2711 21.329C38.4314 21.6509 38.494 22.0235 38.5824 22.3776C38.6134 22.501 38.6431 22.5934 38.7612 22.6634C40.5327 23.714 41.9377 25.1352 43.0113 26.8892C43.0889 27.0158 43.1748 27.0721 43.3384 27.0966C44.731 27.3052 45.7756 28.3152 45.964 29.6447C46.187 31.2171 45.3581 32.5322 43.8506 33.0398C43.6815 33.0969 43.5015 33.1411 43.3243 33.1511C43.1736 33.16 43.0973 33.2283 43.0274 33.3436C42.444 34.3026 41.7481 35.1712 40.9357 35.9461C40.28 36.5715 39.5664 37.1201 38.7841 37.5771C38.656 37.6518 38.5945 37.7406 38.5824 37.8914C38.4804 39.1313 37.4751 40.2543 36.2505 40.5171C35.6546 40.6449 35.0716 40.6172 34.4947 40.4195C34.385 40.3817 34.3384 40.3266 34.3388 40.2036C34.3424 38.4239 34.3436 36.6442 34.3364 34.8649C34.3356 34.6664 34.4718 34.6591 34.5915 34.6217C36.0195 34.1724 37.5016 34.7427 38.2465 36.0671C38.269 36.1068 38.2928 36.1458 38.3317 36.2121V36.2117Z" fill="white"/>
</g>
</g>
<defs>
<linearGradient id="paint0_linear_230_7803" x1="30" y1="0" x2="30" y2="60" gradientUnits="userSpaceOnUse">
<stop stop-color="#006E71"/>
<stop offset="1" stop-color="#009EA3"/>
</linearGradient>
</defs>
</svg>
