<svg width="138" height="130" viewBox="0 0 138 130" fill="none" xmlns="http://www.w3.org/2000/svg">
<g id="Capa 3">
<g id="Group">
<path id="Vector" d="M0.644958 53.4023C0.644958 53.4023 1.65497 27.9795 22.0057 18.5469C22.0057 18.5469 23.2575 28.8346 18.2504 36.1082C18.2504 36.1082 29.8441 33.42 38.3593 39.069C38.3593 39.069 19.1261 44.3705 8.23619 62.7602C8.23619 62.7602 1.36486 54.6048 0.644958 53.4077V53.4023Z" fill="#5AAF95"/>
<path id="Vector_2" d="M0.644108 53.4057C0.644108 53.4057 29.3006 94.359 67.7188 70.3899C67.7188 70.3899 49.0174 96.9243 8.00432 88.3307C8.00432 88.3307 -1.22549 75.3547 0.644108 53.4004V53.4057Z" fill="#5AC8A0"/>
<path id="Vector_3" d="M8.00954 88.3281C8.84764 89.9421 18.6254 108.043 37.5095 113.623C37.5202 113.623 37.5364 113.623 37.5471 113.623C38.5356 113.35 76.6583 102.555 79.409 46.3326C79.409 46.2471 79.2854 46.2258 79.2693 46.3059C77.7597 53.2001 65.8651 96.8843 8.08476 88.2319C8.03103 88.2212 7.98268 88.2746 8.00954 88.3281Z" fill="#64B195"/>
<path id="Vector_4" d="M37.3911 113.505C37.3911 113.505 46.3362 116.855 56.8715 117.005C62.4588 117.085 65.1934 112.719 68.4544 107.743C68.4867 107.695 68.4759 107.626 68.4867 107.567C68.5243 107.369 68.8144 107.391 68.8198 107.594C69.0024 112.596 62.1042 118.87 61.7282 127.955C61.6959 128.768 62.3567 129.398 63.0229 128.923C66.6977 126.304 82.4442 127.031 82.1863 84.1644C82.1863 84.1644 86.2533 63.4339 79.3067 45.2793C79.3067 45.2793 78.431 98.1076 37.3857 113.51L37.3911 113.505Z" fill="#4C8B74"/>
<path id="Vector_5" d="M117.493 62.9004C117.493 62.9004 111.793 106.814 136.608 104.11C137.538 104.009 137.984 105.227 137.21 105.756C131.617 109.577 118.213 115.408 101.881 99.4286" fill="#5AC8A0"/>
<path id="Vector_6" d="M96.7835 103.662C96.7835 103.662 96.7835 103.651 96.7888 103.625C96.7888 103.609 96.7942 103.593 96.7996 103.571C96.7996 103.55 96.8103 103.528 96.8157 103.502C97.2509 101.407 102.645 78.9234 99.9801 57.2042C98.1373 42.16 90.5837 28.2915 78.4743 19.0994C75.6699 16.9723 72.5431 15.0217 69.1854 13.5894C68.0571 13.1405 66.886 12.7183 65.6772 12.3175C65.1722 12.1571 64.6618 11.9968 64.146 11.8418C64.1514 11.8632 64.146 11.8846 64.1407 11.906C61.2395 11.2059 58.1074 10.8692 54.7658 11.0295C52.9607 11.1203 51.0964 11.3501 49.1677 11.7563H49.1731C49.3504 11.457 54.567 3.15735 62.1153 1.24944C63.6894 0.848617 65.328 0.82724 66.9289 1.07842C75.0413 2.37708 111.402 10.3615 117.129 49.9039C117.129 49.9039 122.673 84.3371 96.7835 103.662Z" fill="#3C6B5A"/>
<path id="Vector_7" d="M65.6773 12.3174C65.1723 12.1678 64.6565 12.0288 64.1407 11.9059C64.1461 11.8846 64.1515 11.8632 64.1461 11.8418C64.6619 11.9968 65.1723 12.1571 65.6773 12.3174Z" fill="#3C6B5A"/>
<path id="Vector_8" d="M96.8164 103.5C96.811 103.527 96.8056 103.548 96.8003 103.57C96.7949 103.591 96.7895 103.607 96.7895 103.623C96.7841 103.65 96.7842 103.661 96.7842 103.661C88.6234 110.929 77.8356 114.664 77.8356 114.664C83.9709 87.7239 82.5687 65.5077 80.8657 53.3761C79.7751 45.5628 76.6053 38.1502 71.4908 32.1272C64.05 23.3679 59.1235 25.4041 54.3904 25.3453C51.7687 25.3079 49.8668 23.9986 47.8951 22.2777L46.0846 20.1507C44.2956 18.5848 44.9726 16.0623 46.6219 14.3521L49.1684 11.7548C51.0971 11.3486 52.9613 11.1188 54.7665 11.028C55.7389 10.9799 56.6898 10.9745 57.6246 11.0173C59.7037 11.0867 61.6915 11.354 63.588 11.7815C63.776 11.8189 63.9587 11.8617 64.1413 11.9044C64.1467 11.883 64.1521 11.8617 64.1467 11.8403C64.6625 11.9953 65.1728 12.1556 65.6779 12.3159C66.8866 12.7168 68.0578 13.139 69.186 13.5879C72.5438 15.0201 75.6705 16.9708 78.4749 19.0978C90.5844 28.29 98.138 42.1585 99.9807 57.2026C102.645 78.9218 97.2516 101.405 96.8164 103.5Z" fill="#4C8B74"/>
<path id="Vector_9" d="M64.5608 11.0606C64.55 11.3759 64.491 11.6751 64.3942 11.953C62.5139 11.4667 60.4509 11.2048 58.3771 11.0659C58.3771 11.0231 58.3771 10.975 58.3771 10.9323C58.4309 9.25418 59.9351 8.19067 61.6167 8.24411C63.2983 8.29756 64.6199 9.3771 64.5662 11.0552L64.5608 11.0606Z" fill="white"/>
</g>
</g>
</svg>
