<svg width="1163" height="1163" viewBox="0 0 1163 1163" fill="none" xmlns="http://www.w3.org/2000/svg">
<rect width="1163" height="1163" rx="14" fill="url(#paint0_linear_11603_189)"/>
<path d="M292 935.705V693.127H371.006C452.171 693.127 492.607 732.623 492.607 811.518C492.607 848.951 481.32 879.212 458.452 901.809C435.585 924.407 406.338 935.902 370.515 935.902H292V935.705ZM340.778 735.276V893.36H367.375C390.537 893.36 408.595 885.991 421.845 871.45C435.094 856.712 441.67 837.062 441.67 812.107C441.67 788.036 434.702 769.172 421.06 755.613C407.221 742.055 389.457 735.374 367.375 735.374H340.778V735.276ZM531.177 935.705V693.127H612.342C637.173 693.127 656.409 698.137 669.953 708.159C683.497 718.18 690.073 732.033 690.073 749.817C690.073 762.982 685.852 774.576 677.51 784.401C669.168 794.226 658.666 801.103 645.908 804.935V805.623C661.807 807.784 674.664 813.974 684.478 824.486C694.195 834.999 699.102 848.066 699.102 863.786C699.102 885.893 691.741 903.381 676.921 916.448C662.102 929.515 641.982 936 616.465 936H531.177V935.705ZM579.857 731.739V791.769H603.019C614.207 791.769 622.844 788.92 629.321 783.222C635.799 777.523 638.939 769.663 638.939 759.445C638.939 740.876 626.181 731.542 600.565 731.542L579.857 731.739ZM579.857 830.48V896.995H608.809C621.077 896.995 630.695 893.949 637.565 887.956C644.436 881.963 647.969 873.513 647.969 862.804C647.969 852.586 644.534 844.628 637.565 838.929C630.597 833.231 620.881 830.381 608.122 830.381L579.857 830.48ZM782.034 893.753H879V935.902H726.975V917.824C726.975 905.15 729.134 893.556 733.55 883.24C737.967 872.924 743.954 863 751.609 853.961C759.362 844.922 771.14 834.41 787.333 822.227C802.153 810.535 812.36 800.121 818.347 791.18C824.334 782.141 827.18 772.611 827.18 762.393C827.18 740.483 815.991 729.675 793.516 729.675C773.888 729.675 755.142 738.027 737.182 754.729V709.534C757.203 695.779 779.482 689 804.509 689C827.376 689 845.435 695.19 858.684 707.569C871.934 719.949 878.706 736.946 878.706 758.757C878.706 770.94 876.841 781.846 872.915 791.475C869.186 801.201 863.493 810.339 856.231 819.083C848.968 827.63 837.387 837.947 821.291 850.031C805.883 861.723 795.479 870.762 790.18 877.148C784.88 883.535 782.034 888.84 782.034 893.753Z" fill="white"/>
<path d="M144 227H314.058V252.451H144V227ZM338.198 227V252.451H580.675C580.675 252.451 555.358 227 523.564 227H338.198ZM628.955 227V252.647H776.051L767.415 227H628.955ZM1018.53 227H881.441L872.806 252.647H1018.53V227ZM144 276.923H314.058V302.375H144V276.923ZM338.198 302.473H609.82C609.82 302.473 607.268 282.307 600.988 277.021H338.198V302.473ZM628.955 302.473H792.536L785.177 276.923H628.955V302.473ZM1018.53 302.473V276.923H863.876L856.32 302.473H1018.53ZM193.359 325.281H266.956V350.732H193.359V325.281ZM387.753 325.281H461.35V350.732H387.753V325.281ZM533.769 350.732H607.366C607.366 350.732 612.371 337.223 612.371 325.281H533.671V350.732H533.769ZM678.51 325.281V350.732H809.12L800.485 325.281H678.51ZM839.737 350.732H971.819V325.281H848.47L839.737 350.732ZM193.359 374.911H266.956V400.362H193.359V374.911ZM387.753 400.362H576.848C576.848 400.362 592.156 386.853 597.161 374.911H387.753V400.362ZM824.526 396.544L818.246 374.911H678.51V400.362H752.107V385.678L757.21 400.362H893.119L898.025 385.678V400.362H971.819V374.911H831.886L824.526 396.544ZM193.359 424.54H266.956V449.992H193.359V424.54ZM387.753 450.187H597.161C592.156 438.049 576.848 424.736 576.848 424.736H387.753V450.187ZM678.51 424.54H752.107V449.992H678.51V424.54ZM885.367 424.54H765.943L774.971 450.187H876.633L885.367 424.54ZM896.848 424.54H970.445V449.992H896.848V424.54ZM193.359 474.268H266.956V499.719H193.359V474.268ZM387.753 474.268H461.35V499.719H387.753V474.268ZM607.366 474.268H533.769V499.719H612.469C612.371 487.679 607.366 474.268 607.366 474.268ZM678.51 474.268H752.107V499.719H678.51V474.268ZM868.881 474.268H782.527L791.457 499.817H860.049L868.881 474.268ZM896.848 474.268H970.445V499.719H896.848V474.268ZM145.276 522.625H315.334V548.077H145.276V522.625ZM610.016 522.625H338.198V548.077H600.988C606.091 542.791 610.016 522.625 610.016 522.625ZM630.329 522.625H752.107V548.077H630.329V522.625ZM850.923 522.625H799.013L808.041 548.077H842.092L850.923 522.625ZM896.848 522.625H1020V548.077H896.848V522.625ZM145.276 572.549H315.334V598H145.276V572.549ZM580.773 572.549H338.198V598H523.564C556.535 597.902 580.773 572.549 580.773 572.549ZM630.329 572.549H752.107V598H630.329V572.549ZM825.606 597.902L834.732 572.549H815.4L824.526 597.902H825.606ZM896.848 572.549H1020V598H896.848V572.549Z" fill="white"/>
<defs>
<linearGradient id="paint0_linear_11603_189" x1="581.5" y1="0" x2="581.5" y2="1163" gradientUnits="userSpaceOnUse">
<stop stop-color="#085C20"/>
<stop offset="1" stop-color="#0FC041"/>
</linearGradient>
</defs>
</svg>
