<svg width="140.519" xmlns="http://www.w3.org/2000/svg" height="137.53" id="screenshot-84715156-e7bc-802b-8007-28dc3c7d9c34" viewBox="0 0 140.519 137.53" xmlns:xlink="http://www.w3.org/1999/xlink" fill="none" version="1.1"><g id="shape-84715156-e7bc-802b-8007-28dc3c7d9c34"><g class="frame-container-wrapper"><g class="frame-container-blur"><g class="frame-container-shadows"><g fill="none"><g class="fills" id="fills-84715156-e7bc-802b-8007-28dc3c7d9c34"><rect rx="0" ry="0" x="0" y="0" width="140.5187188203863" height="137.53012127425177" transform="matrix(1.000000, 0.000000, 0.000000, 1.000000, 0.000000, 0.000000)" class="frame-background"/></g><g class="frame-children"><g id="shape-84715156-e7bc-802b-8007-28d6a363fa42" width="138" height="130" rx="0" ry="0" style="fill: rgb(0, 0, 0);"><g id="shape-84715156-e7bc-802b-8007-28d6a365e41f" style="display: none;"><g class="fills" id="fills-84715156-e7bc-802b-8007-28d6a365e41f"><rect width="139.9999999999999" height="136.99999999999977" x="0.2593594101932126" transform="matrix(0.999993, -0.003794, 0.003794, 0.999993, -0.260363, 0.267032)" style="fill: none;" ry="0" fill="none" rx="0" y="0.2650606371257709"/></g></g><g id="shape-84715156-e7bc-802b-8007-28d6a3668bd4"><g class="fills" id="fills-84715156-e7bc-802b-8007-28d6a3668bd4"><path d="M0.86773681640625,56.8060302734375C0.86773681640625,56.8060302734375,1.790771484375,30.0107421875,22.3985595703125,19.9920654296875C22.3985595703125,19.9920654296875,23.70965576171875,30.8287353515625,18.65911865234375,38.5130615234375C18.65911865234375,38.5130615234375,30.410003662109375,35.635498046875,39.071136474609375,41.555908203125C39.071136474609375,41.555908203125,19.58050537109375,47.2169189453125,8.6064453125,66.6385498046875C8.6064453125,66.6385498046875,1.602935791015625,58.070556640625,0.867767333984375,56.811767578125L0.86773681640625,56.8060302734375Z" style="fill: rgb(83, 105, 98); fill-opacity: 1;"/></g></g><g id="shape-84715156-e7bc-802b-8007-28d6a366e5ac"><g class="fills" id="fills-84715156-e7bc-802b-8007-28d6a366e5ac"><path d="M0.866943359375,56.8095703125C0.866943359375,56.8095703125,30.102264404296875,99.857421875,68.98117065429688,74.4501953125C68.98117065429688,74.4501953125,50.11492919921875,102.485107421875,8.473388671875,93.586669921875C8.473388671875,93.586669921875,-0.94195556640625,79.9476318359375,0.866912841796875,56.8040771484375L0.866943359375,56.8095703125Z" style="fill: rgb(66, 83, 77); fill-opacity: 1;"/></g></g><g id="shape-84715156-e7bc-802b-8007-28d6a367129b"><g class="fills" id="fills-84715156-e7bc-802b-8007-28d6a367129b"><path d="M8.478668212890625,93.5838623046875C9.33538818359375,95.28173828125,19.3271484375,114.3192138671875,38.507110595703125,120.127197265625C38.5179443359375,120.1270751953125,38.53436279296875,120.1270751953125,38.545257568359375,120.1270751953125C39.546905517578125,119.8353271484375,78.17874145507812,108.3126220703125,80.7445068359375,49.0526123046875C80.744140625,48.96240234375,80.61868286132812,48.940673828125,80.6026611328125,49.0250244140625C79.0987548828125,56.2962646484375,67.20654296875,102.3779296875,8.55462646484375,93.482177734375C8.50006103515625,93.47119140625,8.451202392578125,93.5274658203125,8.478668212890625,93.5838623046875Z" style="fill: rgb(50, 52, 47); fill-opacity: 1;"/></g></g><g id="shape-84715156-e7bc-802b-8007-28d6a3675590"><g class="fills" id="fills-84715156-e7bc-802b-8007-28d6a3675590"><path d="M38.386505126953125,120.0030517578125C38.386505126953125,120.0030517578125,47.474517822265625,123.4990234375,58.163116455078125,123.6165771484375C63.831573486328125,123.6793212890625,66.58837890625,119.0679931640625,69.87673950195312,113.8114013671875C69.9093017578125,113.7607421875,69.89804077148438,113.68798828125,69.90878295898438,113.625732421875C69.94613647460938,113.4169921875,70.24050903320312,113.43896484375,70.246826171875,113.6529541015625C70.45205688476562,118.92333984375,63.479034423828125,125.5618896484375,63.133880615234375,135.1375732421875C63.1043701171875,135.994384765625,63.777252197265625,136.655517578125,64.45120239257812,136.152587890625C68.16876220703125,133.3785400390625,84.14630126953125,134.083984375,83.71322631835938,88.9105224609375C83.71322631835938,88.9105224609375,87.75631713867188,67.0482177734375,80.63653564453125,47.9429931640625C80.63653564453125,47.9429931640625,79.95932006835938,103.6187744140625,38.381072998046875,120.0084228515625L38.386505126953125,120.0030517578125Z" style="fill: rgb(83, 98, 93); fill-opacity: 1;"/></g></g><g id="shape-84715156-e7bc-802b-8007-28d6a3675591"><g class="fills" id="fills-84715156-e7bc-802b-8007-28d6a3675591"><path d="M119.44638061523438,66.36572265625C119.44638061523438,66.36572265625,113.83932495117188,112.6656494140625,139.00308227539062,109.7205810546875C139.94607543945312,109.6104736328125,140.4034423828125,110.8924560546875,139.62033081054688,111.4527587890625C133.96157836914062,115.5010986328125,120.38674926757812,121.697509765625,103.75424194335938,104.9207763671875" style="fill: rgb(74, 89, 83); fill-opacity: 1;"/></g></g><g id="shape-84715156-e7bc-802b-8007-28d6a367a9a8"><g class="fills" id="fills-84715156-e7bc-802b-8007-28d6a367a9a8"><path d="M98.59988403320312,109.4017333984375C98.59988403320312,109.4017333984375,98.59982299804688,109.39013671875,98.60513305664062,109.36279296875C98.60507202148438,109.3458251953125,98.61044311523438,109.328857421875,98.61587524414062,109.3056640625C98.61578369140625,109.28369140625,98.62652587890625,109.26025390625,98.6318359375,109.23291015625C99.06503295898438,107.0234375,104.4473876953125,83.3084716796875,101.65704345703125,60.4302978515625C99.7274169921875,44.5833740234375,92.0089111328125,29.997314453125,79.68740844726562,20.356689453125C76.83389282226562,18.1259765625,73.6539306640625,16.0823974609375,70.241943359375,14.5859375C69.09548950195312,14.1170654296875,67.90570068359375,13.6767578125,66.67776489257812,13.259033203125C66.164794921875,13.092041015625,65.64639282226562,12.9249267578125,65.12252807617188,12.7635498046875C65.12802124023438,12.785888671875,65.1226806640625,12.808837890625,65.11740112304688,12.8310546875C62.17138671875,12.104736328125,58.992584228515625,11.7618408203125,55.603240966796875,11.94384765625C53.77227783203125,12.0462646484375,51.881866455078125,12.295654296875,49.92694091796875,12.731201171875L49.932373046875,12.731201171875C50.111053466796875,12.4151611328125,55.3699951171875,3.6484375,63.02001953125,1.6087646484375C64.61532592773438,1.1802978515625,66.277587890625,1.1514892578125,67.90264892578125,1.409912109375C76.1378173828125,2.7474365234375,113.05709838867188,11.021728515625,119.02520751953125,52.671142578125C119.02520751953125,52.671142578125,124.78707885742188,88.9368896484375,98.59988403320312,109.4017333984375Z" style="fill: rgb(47, 52, 50); fill-opacity: 1;"/></g></g><g id="shape-84715156-e7bc-802b-8007-28d6a367a9a9"><g class="fills" id="fills-84715156-e7bc-802b-8007-28d6a367a9a9"><path d="M66.67788696289062,13.2587890625C66.16500854492188,13.1031494140625,65.64111328125,12.958740234375,65.11740112304688,12.8310546875C65.122802734375,12.808837890625,65.128173828125,12.785888671875,65.12265014648438,12.7635498046875C65.64654541015625,12.9249267578125,66.16494750976562,13.092041015625,66.67788696289062,13.2587890625Z" style="fill: rgb(60, 107, 90);"/></g></g><g id="shape-84715156-e7bc-802b-8007-28d6a367d96f"><g class="fills" id="fills-84715156-e7bc-802b-8007-28d6a367d96f"><path d="M98.63259887695312,109.2308349609375C98.627197265625,109.25927734375,98.62185668945312,109.2813720703125,98.61651611328125,109.3045654296875C98.61114501953125,109.326904296875,98.605712890625,109.343994140625,98.60580444335938,109.3607177734375C98.6004638671875,109.3890380859375,98.6005859375,109.4007568359375,98.6005859375,109.4007568359375C90.35061645507812,117.09130859375,79.42144775390625,121.06884765625,79.42144775390625,121.06884765625C85.53793334960938,92.6546630859375,84.02664184570312,69.247802734375,82.25045776367188,56.4697265625C81.11282348632812,48.2398681640625,77.86749267578125,40.4404296875,72.65475463867188,34.1129150390625C65.07119750976562,24.9107666015625,60.081451416015625,27.0753173828125,55.279571533203125,27.0318603515625C52.6197509765625,27.0020751953125,50.685089111328125,25.6298828125,48.677886962890625,23.823974609375L46.832733154296875,21.58935546875C45.01153564453125,19.946044921875,45.688262939453125,17.2850341796875,47.35455322265625,15.4764404296875L49.927581787109375,12.7296142578125C51.88262939453125,12.294189453125,53.772918701171875,12.044677734375,55.6038818359375,11.942138671875C56.590179443359375,11.8876953125,57.55487060546875,11.878173828125,58.5032958984375,11.919677734375C60.612823486328125,11.98486328125,62.630523681640625,12.2589111328125,64.55621337890625,12.7021484375C64.7470703125,12.74072265625,64.93255615234375,12.7852783203125,65.11801147460938,12.8294677734375C65.1234130859375,12.80712890625,65.1287841796875,12.7845458984375,65.12322998046875,12.7620849609375C65.64706420898438,12.92333984375,66.1654052734375,13.09033203125,66.67849731445312,13.25732421875C67.90628051757812,13.675048828125,69.09616088867188,14.115478515625,70.24246215820312,14.5843505859375C73.6546630859375,16.080810546875,76.83450317382812,18.12451171875,79.68798828125,20.3551025390625C92.00970458984375,29.99560546875,99.72811889648438,44.5816650390625,101.65768432617188,60.4287109375C104.4473876953125,83.3067626953125,99.06573486328125,107.021240234375,98.63259887695312,109.2308349609375Z" style="fill: rgb(83, 98, 93); fill-opacity: 1;"/></g></g><g id="shape-84715156-e7bc-802b-8007-28d6a3683dbf"><g class="fills" id="fills-84715156-e7bc-802b-8007-28d6a3683dbf"><path d="M65.54019165039062,11.938720703125C65.53048706054688,12.27099609375,65.47177124023438,12.5865478515625,65.37478637695312,12.8798828125C63.46527099609375,12.37451171875,61.37139892578125,12.1064453125,59.266937255859375,11.9683837890625C59.266754150390625,11.923095703125,59.266571044921875,11.8724365234375,59.266387939453125,11.8272705078125C59.314300537109375,10.05859375,60.836029052734375,8.9322509765625,62.542205810546875,8.98193359375C64.24832153320312,9.0318603515625,65.59341430664062,10.1644287109375,65.54571533203125,11.9329833984375L65.54019165039062,11.938720703125Z" style="fill: rgb(255, 255, 255);"/></g></g></g></g></g></g></g></g></g></svg>