<svg width="25" height="24" viewBox="0 0 25 24" fill="none" xmlns="http://www.w3.org/2000/svg">
<g id="vuesax/bulk/danger">
<g id="danger">
<path id="Vector" d="M15.1729 4.64282L15.1728 4.64258C14.3654 3.18745 13.3153 2.5 12.25 2.5C11.1846 2.5 10.1346 3.18745 9.32719 4.64258L9.32706 4.64282L2.9279 16.1613C2.92776 16.1616 2.92762 16.1618 2.92748 16.1621C2.17295 17.5318 2.13799 18.7464 2.67144 19.6573C3.20425 20.5672 4.28541 21.13 5.84998 21.13H18.65C20.2145 21.13 21.2957 20.5672 21.8285 19.6573C22.3623 18.7459 22.3265 17.5213 21.5729 16.1628L15.1729 4.64282ZM15.1729 4.64282L21.5728 16.1626L15.1729 4.64282Z" fill="#FF7A00" stroke="#FDFDFF"/>
<path id="Vector_2" d="M12.25 14.75C11.84 14.75 11.5 14.41 11.5 14V9C11.5 8.59 11.84 8.25 12.25 8.25C12.66 8.25 13 8.59 13 9V14C13 14.41 12.66 14.75 12.25 14.75Z" fill="white"/>
<path id="Vector_3" d="M12.25 18.0001C12.19 18.0001 12.12 17.9901 12.05 17.9801C11.99 17.9701 11.93 17.9501 11.87 17.9201C11.81 17.9001 11.75 17.8701 11.69 17.8301C11.64 17.7901 11.59 17.7501 11.54 17.7101C11.36 17.5201 11.25 17.2601 11.25 17.0001C11.25 16.7401 11.36 16.4801 11.54 16.2901C11.59 16.2501 11.64 16.2101 11.69 16.1701C11.75 16.1301 11.81 16.1001 11.87 16.0801C11.93 16.0501 11.99 16.0301 12.05 16.0201C12.18 15.9901 12.32 15.9901 12.44 16.0201C12.51 16.0301 12.57 16.0501 12.63 16.0801C12.69 16.1001 12.75 16.1301 12.81 16.1701C12.86 16.2101 12.91 16.2501 12.96 16.2901C13.14 16.4801 13.25 16.7401 13.25 17.0001C13.25 17.2601 13.14 17.5201 12.96 17.7101C12.91 17.7501 12.86 17.7901 12.81 17.8301C12.75 17.8701 12.69 17.9001 12.63 17.9201C12.57 17.9501 12.51 17.9701 12.44 17.9801C12.38 17.9901 12.31 18.0001 12.25 18.0001Z" fill="white"/>
</g>
</g>
</svg>
